<svg xmlns="http://www.w3.org/2000/svg" xmlns:xlink="http://www.w3.org/1999/xlink" width="52" zoomAndPan="magnify" viewBox="0 0 39 19.5" height="26" preserveAspectRatio="xMidYMid meet" version="1.2"><defs><clipPath id="281d2d968c"><path d="M 0.488281 0 L 38.511719 0 L 38.511719 19.011719 L 0.488281 19.011719 Z M 0.488281 0 "/></clipPath><clipPath id="503409da2e"><path d="M 0.488281 0 L 37.78125 0 L 37.78125 19 L 0.488281 19 Z M 0.488281 0 "/></clipPath><clipPath id="ee0966bbb4"><path d="M 37 7 L 37.78125 7 L 37.78125 8 L 37 8 Z M 37 7 "/></clipPath><clipPath id="08d8eab031"><path d="M 0.488281 11 L 2 11 L 2 12 L 0.488281 12 Z M 0.488281 11 "/></clipPath><clipPath id="bd7ae6ad14"><path d="M 36 1 L 37.78125 1 L 37.78125 2 L 36 2 Z M 36 1 "/></clipPath></defs><g id="193e35133d"><g clip-rule="nonzero" clip-path="url(#281d2d968c)"><path style=" stroke:none;fill-rule:nonzero;fill:#ffffff;fill-opacity:1;" d="M 0.488281 0 L 38.511719 0 L 38.511719 19.011719 L 0.488281 19.011719 Z M 0.488281 0 "/></g><g clip-rule="nonzero" clip-path="url(#503409da2e)"><path style=" stroke:none;fill-rule:nonzero;fill:#fbb03b;fill-opacity:1;" d="M 37.292969 12.277344 C 37.429688 12.277344 37.5625 12.277344 37.742188 12.277344 C 37.441406 12.054688 37.164062 12.226562 36.898438 12.207031 C 36.753906 12.109375 36.632812 11.960938 36.421875 12.007812 C 36.296875 11.964844 36.175781 11.980469 36.054688 11.996094 C 36.023438 11.9375 35.976562 11.878906 35.953125 11.824219 C 35.933594 11.777344 35.890625 11.742188 35.859375 11.703125 C 35.769531 11.640625 35.679688 11.578125 35.589844 11.515625 C 35.636719 11.476562 35.679688 11.433594 35.726562 11.390625 C 35.839844 11.378906 35.941406 11.339844 36.019531 11.265625 C 36.117188 11.199219 36.210938 11.136719 36.203125 11.007812 L 36.203125 10.953125 C 36.347656 10.9375 36.5 10.9375 36.535156 10.761719 C 36.519531 10.699219 36.5 10.636719 36.484375 10.574219 C 36.589844 10.585938 36.695312 10.628906 36.765625 10.488281 C 36.828125 10.355469 36.933594 10.242188 37.019531 10.121094 C 37.109375 10.0625 37.203125 10 37.292969 9.9375 C 37.289062 9.757812 37.363281 9.613281 37.5 9.492188 C 37.582031 9.480469 37.6875 9.53125 37.730469 9.445312 C 37.769531 9.378906 37.683594 9.378906 37.636719 9.367188 C 37.523438 9.347656 37.410156 9.324219 37.296875 9.304688 C 37.296875 9.242188 37.296875 9.175781 37.296875 9.113281 C 37.320312 9.070312 37.339844 9.03125 37.363281 8.988281 C 37.363281 8.96875 37.363281 8.945312 37.363281 8.925781 C 37.441406 8.898438 37.511719 9.011719 37.59375 8.941406 C 37.5625 8.867188 37.5 8.828125 37.433594 8.796875 C 37.390625 8.710938 37.320312 8.652344 37.230469 8.605469 C 37.269531 8.46875 37.027344 8.4375 37.089844 8.292969 C 37.1875 8.3125 37.21875 8.433594 37.355469 8.433594 C 37.320312 8.328125 37.25 8.273438 37.160156 8.230469 C 37.113281 8.167969 37.085938 8.085938 36.980469 8.09375 C 36.992188 8.136719 37.007812 8.183594 37.019531 8.230469 C 36.929688 8.230469 36.839844 8.230469 36.75 8.230469 C 36.679688 8.1875 36.613281 8.144531 36.542969 8.101562 C 36.542969 8.078125 36.519531 8.066406 36.511719 8.042969 C 36.570312 8.023438 36.632812 8.003906 36.691406 7.984375 C 36.847656 7.953125 36.683594 7.84375 36.746094 7.792969 C 36.875 7.78125 36.949219 7.691406 37.027344 7.613281 C 37.152344 7.578125 37.308594 7.648438 37.457031 7.511719 C 37.277344 7.519531 37.148438 7.527344 37.015625 7.535156 C 37.003906 7.496094 36.992188 7.457031 36.976562 7.414062 C 37.039062 7.335938 37.1875 7.34375 37.210938 7.222656 C 37.195312 7.21875 37.179688 7.214844 37.164062 7.214844 C 36.988281 7.101562 36.792969 7.171875 36.605469 7.164062 C 36.398438 7.164062 36.195312 7.167969 35.988281 7.167969 C 35.972656 7.164062 35.953125 7.160156 35.9375 7.15625 C 35.933594 7.128906 35.929688 7.105469 35.925781 7.078125 C 36.191406 7.070312 36.421875 6.957031 36.652344 6.855469 C 36.785156 6.800781 36.726562 6.753906 36.617188 6.738281 C 36.664062 6.570312 36.839844 6.566406 36.964844 6.5 C 37.042969 6.441406 37.117188 6.378906 37.210938 6.308594 C 37.078125 6.300781 36.980469 6.292969 36.882812 6.289062 C 36.832031 6.214844 36.847656 6.175781 36.949219 6.175781 C 37.082031 6.175781 37.214844 6.175781 37.394531 6.175781 C 37.097656 5.953125 36.820312 6.128906 36.554688 6.105469 C 36.410156 6.007812 36.289062 5.863281 36.074219 5.910156 C 35.953125 5.863281 35.828125 5.878906 35.707031 5.894531 C 35.679688 5.835938 35.632812 5.777344 35.609375 5.722656 C 35.589844 5.675781 35.546875 5.640625 35.511719 5.601562 C 35.425781 5.539062 35.335938 5.476562 35.246094 5.414062 C 35.292969 5.375 35.335938 5.332031 35.382812 5.292969 C 35.492188 5.277344 35.59375 5.242188 35.675781 5.164062 C 35.769531 5.097656 35.867188 5.035156 35.859375 4.90625 L 35.859375 4.851562 C 36 4.835938 36.15625 4.835938 36.191406 4.660156 C 36.171875 4.597656 36.15625 4.535156 36.136719 4.472656 C 36.246094 4.484375 36.351562 4.53125 36.417969 4.386719 C 36.484375 4.257812 36.585938 4.144531 36.675781 4.023438 C 36.765625 3.960938 36.855469 3.898438 36.949219 3.835938 C 36.941406 3.65625 37.019531 3.511719 37.15625 3.390625 C 37.234375 3.378906 37.339844 3.429688 37.386719 3.34375 C 37.421875 3.277344 37.339844 3.277344 37.292969 3.265625 C 37.179688 3.246094 37.066406 3.222656 36.953125 3.203125 C 36.953125 3.140625 36.953125 3.078125 36.953125 3.011719 C 36.972656 2.972656 36.996094 2.929688 37.019531 2.886719 C 37.019531 2.867188 37.019531 2.84375 37.019531 2.824219 C 37.097656 2.800781 37.164062 2.910156 37.25 2.84375 C 37.21875 2.765625 37.15625 2.726562 37.085938 2.695312 C 37.046875 2.609375 36.972656 2.550781 36.882812 2.507812 C 36.925781 2.371094 36.683594 2.335938 36.746094 2.191406 C 36.84375 2.210938 36.875 2.332031 37.011719 2.332031 C 36.976562 2.226562 36.902344 2.171875 36.8125 2.128906 C 36.769531 2.066406 36.742188 1.984375 36.632812 1.992188 C 36.648438 2.035156 36.664062 2.082031 36.675781 2.128906 C 36.585938 2.128906 36.496094 2.128906 36.402344 2.128906 C 36.335938 2.085938 36.265625 2.042969 36.199219 2 C 36.199219 1.976562 36.175781 1.964844 36.167969 1.945312 C 36.226562 1.921875 36.285156 1.902344 36.347656 1.882812 C 36.503906 1.855469 36.339844 1.742188 36.402344 1.691406 C 36.53125 1.679688 36.601562 1.589844 36.679688 1.511719 C 36.808594 1.476562 36.960938 1.550781 37.113281 1.410156 C 36.933594 1.421875 36.800781 1.429688 36.671875 1.4375 C 36.65625 1.394531 36.644531 1.355469 36.632812 1.316406 C 36.695312 1.234375 36.84375 1.242188 36.867188 1.121094 C 36.851562 1.117188 36.835938 1.113281 36.820312 1.113281 C 36.644531 1 36.449219 1.070312 36.261719 1.066406 C 36.054688 1.066406 35.847656 1.066406 35.644531 1.066406 C 35.503906 1.039062 35.367188 1.015625 35.230469 0.988281 C 35.214844 0.976562 35.195312 0.972656 35.171875 0.980469 C 35.105469 0.898438 34.839844 0.960938 34.964844 0.738281 C 34.667969 0.496094 34.300781 0.449219 33.925781 0.429688 C 33.84375 0.425781 33.757812 0.417969 33.675781 0.414062 C 33.347656 0.382812 33.039062 0.191406 32.695312 0.296875 C 32.535156 0.28125 32.390625 0.160156 32.214844 0.238281 C 32.117188 0.226562 32.011719 0.183594 31.9375 0.289062 C 31.917969 0.285156 31.894531 0.289062 31.875 0.296875 C 31.75 0.207031 31.609375 0.207031 31.464844 0.234375 C 31.421875 0.230469 31.378906 0.230469 31.335938 0.226562 C 31.046875 0.125 30.730469 0.191406 30.433594 0.117188 C 30.300781 0.0820312 30.164062 0.09375 30.027344 0.113281 C 29.867188 0.113281 29.707031 0.109375 29.542969 0.109375 C 29.523438 0.109375 29.5 0.109375 29.476562 0.105469 C 29.324219 0.117188 29.171875 0.136719 29.019531 0.136719 C 28.558594 0.132812 28.101562 0.105469 27.644531 0.105469 C 27.621094 0.105469 27.597656 0.109375 27.570312 0.105469 C 27.429688 0.109375 27.289062 0.0976562 27.148438 0.109375 C 27.117188 0.109375 27.085938 0.113281 27.054688 0.109375 C 26.960938 0.046875 26.851562 0.0429688 26.742188 0.046875 C 26.171875 0.046875 25.601562 0.046875 25.03125 0.046875 C 24.894531 0.046875 24.753906 0.046875 24.617188 0.046875 C 24.480469 0.046875 24.347656 0.046875 24.210938 0.046875 C 24.210938 0.0664062 24.214844 0.0859375 24.214844 0.105469 C 24.347656 0.105469 24.484375 0.105469 24.617188 0.105469 C 24.65625 0.105469 24.699219 0.105469 24.742188 0.105469 C 24.605469 0.109375 24.472656 0.113281 24.339844 0.117188 C 24.269531 0.117188 24.203125 0.117188 24.132812 0.117188 C 23.824219 0.132812 23.511719 0.0703125 23.207031 0.164062 C 23.199219 0.160156 23.191406 0.152344 23.183594 0.152344 C 23.167969 0.152344 23.152344 0.160156 23.132812 0.164062 C 23 0.128906 22.863281 0.128906 22.726562 0.164062 C 22.003906 0.179688 21.273438 0.128906 20.550781 0.226562 C 20.332031 0.226562 20.109375 0.226562 19.890625 0.230469 C 19.847656 0.214844 19.804688 0.230469 19.757812 0.226562 C 19.828125 0.199219 19.898438 0.171875 19.972656 0.144531 C 19.863281 0.117188 19.761719 0.0742188 19.683594 0.167969 C 19.546875 0.167969 19.410156 0.171875 19.277344 0.171875 C 19.195312 0.171875 19.113281 0.167969 19.0625 0.246094 C 19.0625 0.246094 19.0625 0.246094 19.058594 0.246094 C 18.734375 0.261719 18.402344 0.171875 18.082031 0.285156 C 17.40625 0.292969 16.730469 0.300781 16.054688 0.308594 C 16.003906 0.308594 15.957031 0.308594 15.90625 0.308594 C 15.289062 0.308594 14.671875 0.308594 14.050781 0.3125 C 13.667969 0.332031 13.285156 0.351562 12.898438 0.371094 C 12.851562 0.371094 12.804688 0.367188 12.753906 0.367188 C 12.550781 0.367188 12.347656 0.371094 12.140625 0.371094 C 11.890625 0.371094 11.636719 0.371094 11.386719 0.371094 C 11.273438 0.371094 11.160156 0.371094 11.050781 0.371094 C 10.910156 0.371094 10.773438 0.371094 10.636719 0.371094 C 10.589844 0.371094 10.542969 0.371094 10.492188 0.367188 C 10.296875 0.363281 10.097656 0.359375 9.898438 0.351562 C 9.894531 0.351562 9.890625 0.351562 9.886719 0.351562 C 9.660156 0.292969 9.425781 0.296875 9.195312 0.304688 C 9.019531 0.300781 8.84375 0.292969 8.667969 0.285156 C 8.503906 0.21875 8.335938 0.234375 8.164062 0.242188 C 8.097656 0.238281 8.035156 0.234375 7.96875 0.230469 C 7.65625 0.136719 7.328125 0.179688 7.007812 0.164062 C 6.816406 0.0585938 6.601562 0.132812 6.402344 0.0976562 C 6.296875 0.03125 6.203125 0 6.175781 0.160156 C 6.054688 0.3125 6.074219 0.523438 5.925781 0.671875 C 5.789062 0.808594 5.78125 0.972656 5.878906 1.136719 C 5.882812 1.15625 5.890625 1.171875 5.910156 1.179688 C 5.976562 1.285156 6.042969 1.390625 6.109375 1.496094 C 5.878906 1.472656 5.746094 1.613281 5.609375 1.746094 C 5.542969 1.769531 5.503906 1.8125 5.484375 1.871094 C 5.429688 1.875 5.382812 1.890625 5.359375 1.941406 C 5.246094 1.980469 5.078125 1.875 5.015625 2.050781 C 5.011719 2.050781 5.003906 2.054688 4.996094 2.054688 C 4.890625 2.050781 4.785156 2.050781 4.683594 2.046875 C 4.585938 1.988281 4.480469 1.957031 4.324219 1.964844 C 4.441406 2.078125 4.550781 2.113281 4.671875 2.125 C 4.714844 2.148438 4.753906 2.175781 4.792969 2.199219 C 4.777344 2.363281 4.757812 2.53125 4.738281 2.699219 C 4.75 2.71875 4.773438 2.730469 4.785156 2.75 C 4.777344 2.753906 4.773438 2.75 4.769531 2.753906 C 4.738281 2.757812 4.710938 2.757812 4.683594 2.757812 C 4.613281 2.761719 4.546875 2.765625 4.480469 2.765625 C 4.386719 2.785156 4.296875 2.804688 4.203125 2.824219 C 3.914062 2.898438 3.605469 2.921875 3.378906 3.136719 C 3.175781 3.175781 3.0625 3.347656 2.859375 3.417969 C 2.996094 3.488281 3.074219 3.378906 3.171875 3.390625 C 3.199219 3.414062 3.222656 3.4375 3.25 3.460938 C 3.199219 3.519531 3.152344 3.578125 3.101562 3.636719 C 2.90625 3.675781 2.804688 3.828125 2.683594 3.953125 C 2.609375 4 2.550781 4.054688 2.566406 4.148438 C 2.605469 4.390625 2.28125 4.472656 2.261719 4.726562 C 2.359375 4.667969 2.421875 4.632812 2.488281 4.59375 C 2.488281 4.613281 2.488281 4.636719 2.492188 4.65625 C 2.441406 4.71875 2.394531 4.78125 2.347656 4.84375 C 2.417969 4.964844 2.378906 5.0625 2.277344 5.148438 C 2.210938 5.199219 2.144531 5.246094 2.078125 5.292969 C 2.023438 5.289062 1.972656 5.300781 1.9375 5.347656 C 1.636719 5.515625 1.636719 5.542969 1.984375 5.742188 C 1.988281 5.773438 1.992188 5.804688 1.996094 5.835938 C 1.730469 5.839844 1.503906 5.953125 1.269531 6.054688 C 1.140625 6.109375 1.199219 6.15625 1.304688 6.175781 C 1.257812 6.339844 1.085938 6.34375 0.957031 6.410156 C 0.882812 6.472656 0.808594 6.53125 0.714844 6.601562 C 0.847656 6.609375 0.945312 6.617188 1.042969 6.625 C 1.09375 6.699219 1.074219 6.734375 0.976562 6.734375 C 0.839844 6.734375 0.707031 6.734375 0.527344 6.734375 C 0.828125 6.957031 1.105469 6.78125 1.371094 6.804688 C 1.515625 6.902344 1.636719 7.050781 1.847656 7 C 1.972656 7.046875 2.09375 7.03125 2.214844 7.015625 C 2.246094 7.074219 2.289062 7.132812 2.316406 7.1875 C 2.335938 7.234375 2.378906 7.269531 2.410156 7.308594 C 2.5 7.371094 2.589844 7.433594 2.679688 7.496094 C 2.632812 7.535156 2.585938 7.578125 2.542969 7.617188 C 2.429688 7.632812 2.328125 7.671875 2.25 7.746094 C 2.152344 7.8125 2.058594 7.875 2.066406 8.003906 L 2.066406 8.058594 C 1.921875 8.074219 1.769531 8.074219 1.734375 8.25 C 1.75 8.3125 1.769531 8.375 1.785156 8.4375 C 1.679688 8.425781 1.574219 8.382812 1.503906 8.523438 C 1.441406 8.65625 1.335938 8.769531 1.25 8.890625 C 1.160156 8.949219 1.066406 9.011719 0.976562 9.074219 C 0.980469 9.253906 0.90625 9.398438 0.765625 9.519531 C 0.6875 9.53125 0.582031 9.480469 0.535156 9.566406 C 0.5 9.632812 0.582031 9.632812 0.632812 9.644531 C 0.746094 9.664062 0.859375 9.6875 0.972656 9.707031 C 0.972656 9.769531 0.972656 9.835938 0.972656 9.898438 C 0.949219 9.941406 0.925781 9.980469 0.90625 10.023438 C 0.90625 10.042969 0.90625 10.066406 0.90625 10.085938 C 0.828125 10.109375 0.757812 10 0.675781 10.070312 C 0.707031 10.144531 0.769531 10.183594 0.835938 10.214844 C 0.878906 10.300781 0.949219 10.359375 1.039062 10.402344 C 1 10.542969 1.238281 10.574219 1.179688 10.71875 C 1.082031 10.699219 1.050781 10.578125 0.914062 10.578125 C 0.949219 10.683594 1.019531 10.738281 1.109375 10.78125 C 1.15625 10.84375 1.183594 10.925781 1.289062 10.917969 C 1.277344 10.875 1.261719 10.828125 1.25 10.78125 C 1.339844 10.78125 1.429688 10.78125 1.519531 10.78125 C 1.589844 10.824219 1.65625 10.867188 1.726562 10.910156 C 1.726562 10.933594 1.75 10.945312 1.757812 10.964844 C 1.699219 10.988281 1.636719 11.007812 1.578125 11.027344 C 1.421875 11.058594 1.585938 11.167969 1.523438 11.21875 C 1.394531 11.230469 1.320312 11.320312 1.242188 11.398438 C 1.117188 11.433594 0.960938 11.363281 0.8125 11.5 C 0.992188 11.492188 1.121094 11.484375 1.253906 11.472656 C 1.265625 11.515625 1.277344 11.554688 1.292969 11.597656 C 1.226562 11.675781 1.078125 11.667969 1.054688 11.789062 C 1.070312 11.792969 1.089844 11.796875 1.105469 11.796875 C 1.28125 11.910156 1.476562 11.839844 1.664062 11.847656 C 1.871094 11.84375 2.074219 11.84375 2.28125 11.84375 C 2.296875 11.847656 2.3125 11.851562 2.332031 11.855469 C 2.335938 11.882812 2.339844 11.910156 2.34375 11.9375 C 2.078125 11.941406 1.847656 12.054688 1.617188 12.15625 C 1.484375 12.210938 1.542969 12.257812 1.652344 12.273438 C 1.605469 12.441406 1.429688 12.445312 1.304688 12.511719 C 1.226562 12.570312 1.152344 12.632812 1.058594 12.703125 C 1.191406 12.710938 1.289062 12.71875 1.386719 12.722656 C 1.4375 12.796875 1.421875 12.835938 1.320312 12.835938 C 1.1875 12.835938 1.054688 12.835938 0.875 12.835938 C 1.171875 13.058594 1.449219 12.882812 1.714844 12.90625 C 1.859375 13.003906 1.980469 13.148438 2.195312 13.101562 C 2.316406 13.148438 2.441406 13.132812 2.5625 13.117188 C 2.589844 13.175781 2.636719 13.234375 2.660156 13.289062 C 2.679688 13.335938 2.722656 13.371094 2.757812 13.410156 C 2.84375 13.472656 2.933594 13.535156 3.023438 13.597656 C 2.976562 13.636719 2.933594 13.679688 2.886719 13.71875 C 2.777344 13.734375 2.675781 13.769531 2.59375 13.847656 C 2.5 13.914062 2.402344 13.976562 2.410156 14.105469 L 2.410156 14.160156 C 2.269531 14.175781 2.113281 14.175781 2.078125 14.351562 C 2.097656 14.414062 2.113281 14.476562 2.132812 14.539062 C 2.023438 14.527344 1.917969 14.480469 1.851562 14.625 C 1.785156 14.753906 1.683594 14.867188 1.59375 14.988281 C 1.503906 15.050781 1.410156 15.113281 1.320312 15.175781 C 1.328125 15.355469 1.25 15.5 1.113281 15.621094 C 1.035156 15.632812 0.929688 15.582031 0.882812 15.667969 C 0.847656 15.734375 0.929688 15.734375 0.976562 15.746094 C 1.089844 15.765625 1.203125 15.789062 1.316406 15.808594 C 1.316406 15.871094 1.316406 15.933594 1.316406 16 C 1.296875 16.039062 1.273438 16.082031 1.25 16.125 C 1.25 16.144531 1.25 16.167969 1.25 16.1875 C 1.171875 16.210938 1.105469 16.101562 1.019531 16.167969 C 1.050781 16.246094 1.113281 16.285156 1.183594 16.316406 C 1.226562 16.402344 1.296875 16.460938 1.386719 16.503906 C 1.34375 16.644531 1.585938 16.675781 1.523438 16.820312 C 1.425781 16.800781 1.394531 16.679688 1.261719 16.679688 C 1.292969 16.785156 1.367188 16.839844 1.457031 16.882812 C 1.5 16.945312 1.527344 17.027344 1.636719 17.019531 C 1.621094 16.976562 1.605469 16.929688 1.59375 16.882812 C 1.683594 16.882812 1.773438 16.882812 1.867188 16.882812 C 1.933594 16.925781 2.003906 16.96875 2.070312 17.011719 C 2.070312 17.035156 2.09375 17.046875 2.101562 17.066406 C 2.042969 17.085938 1.984375 17.109375 1.925781 17.128906 C 1.765625 17.160156 1.929688 17.269531 1.867188 17.320312 C 1.738281 17.332031 1.667969 17.421875 1.589844 17.5 C 1.460938 17.535156 1.308594 17.460938 1.15625 17.601562 C 1.335938 17.589844 1.46875 17.582031 1.597656 17.574219 C 1.609375 17.617188 1.625 17.65625 1.636719 17.695312 C 1.574219 17.777344 1.425781 17.769531 1.402344 17.890625 C 1.417969 17.894531 1.433594 17.898438 1.449219 17.898438 C 1.625 18.011719 1.820312 17.941406 2.007812 17.949219 C 2.214844 17.945312 2.421875 17.945312 2.625 17.945312 C 2.765625 17.972656 2.902344 17.996094 3.039062 18.023438 C 3.054688 18.035156 3.074219 18.039062 3.097656 18.03125 C 3.164062 18.113281 3.429688 18.050781 3.304688 18.273438 C 3.601562 18.515625 3.96875 18.5625 4.34375 18.582031 C 4.425781 18.585938 4.511719 18.59375 4.59375 18.597656 C 4.921875 18.628906 5.230469 18.820312 5.574219 18.714844 C 5.734375 18.734375 5.878906 18.851562 6.054688 18.777344 C 6.152344 18.785156 6.257812 18.828125 6.332031 18.722656 C 6.351562 18.726562 6.375 18.722656 6.394531 18.714844 C 6.519531 18.804688 6.660156 18.804688 6.804688 18.777344 C 6.847656 18.78125 6.890625 18.78125 6.933594 18.785156 C 7.222656 18.886719 7.539062 18.820312 7.835938 18.894531 C 7.96875 18.929688 8.105469 18.917969 8.242188 18.898438 C 8.402344 18.898438 8.5625 18.902344 8.726562 18.902344 C 8.746094 18.902344 8.769531 18.902344 8.792969 18.90625 C 8.945312 18.894531 9.097656 18.875 9.25 18.875 C 9.710938 18.878906 10.167969 18.90625 10.625 18.90625 C 10.648438 18.90625 10.671875 18.90625 10.699219 18.90625 C 10.839844 18.902344 10.980469 18.914062 11.121094 18.902344 C 11.152344 18.902344 11.183594 18.898438 11.214844 18.902344 C 11.3125 18.964844 11.417969 18.96875 11.527344 18.964844 C 12.097656 18.964844 12.667969 18.964844 13.238281 18.964844 C 13.375 18.964844 13.515625 18.964844 13.652344 18.964844 C 13.789062 18.964844 13.921875 18.964844 14.058594 18.964844 C 14.058594 18.945312 14.054688 18.925781 14.054688 18.90625 C 13.921875 18.90625 13.789062 18.90625 13.652344 18.90625 C 13.613281 18.90625 13.570312 18.90625 13.527344 18.90625 C 13.664062 18.902344 13.796875 18.898438 13.929688 18.894531 C 14 18.894531 14.066406 18.894531 14.136719 18.894531 C 14.445312 18.878906 14.757812 18.941406 15.0625 18.847656 C 15.070312 18.851562 15.078125 18.863281 15.085938 18.859375 C 15.101562 18.859375 15.117188 18.851562 15.132812 18.847656 C 15.269531 18.886719 15.40625 18.882812 15.542969 18.847656 C 16.265625 18.835938 16.996094 18.882812 17.71875 18.789062 C 17.9375 18.785156 18.15625 18.785156 18.378906 18.78125 C 18.421875 18.796875 18.464844 18.78125 18.511719 18.789062 C 18.441406 18.8125 18.367188 18.84375 18.296875 18.867188 C 18.40625 18.894531 18.507812 18.9375 18.585938 18.84375 C 18.722656 18.84375 18.855469 18.839844 18.992188 18.839844 C 19.074219 18.839844 19.15625 18.847656 19.207031 18.765625 C 19.207031 18.769531 19.207031 18.765625 19.210938 18.765625 C 19.523438 18.75 19.84375 18.824219 20.15625 18.730469 C 20.167969 18.726562 20.175781 18.730469 20.1875 18.726562 C 20.863281 18.71875 21.539062 18.710938 22.214844 18.703125 C 22.265625 18.703125 22.3125 18.703125 22.363281 18.703125 C 22.980469 18.703125 23.597656 18.703125 24.21875 18.699219 C 24.601562 18.679688 24.984375 18.664062 25.371094 18.644531 C 25.417969 18.644531 25.464844 18.644531 25.515625 18.644531 C 25.71875 18.644531 25.921875 18.644531 26.128906 18.644531 C 26.378906 18.640625 26.632812 18.640625 26.882812 18.640625 C 26.996094 18.640625 27.109375 18.640625 27.21875 18.640625 C 27.359375 18.640625 27.496094 18.640625 27.632812 18.644531 C 27.679688 18.644531 27.726562 18.644531 27.777344 18.644531 C 27.972656 18.648438 28.171875 18.65625 28.371094 18.660156 C 28.601562 18.71875 28.839844 18.714844 29.074219 18.707031 C 29.25 18.714844 29.425781 18.71875 29.601562 18.726562 C 29.765625 18.792969 29.933594 18.78125 30.105469 18.769531 C 30.171875 18.773438 30.234375 18.777344 30.300781 18.78125 C 30.613281 18.878906 30.941406 18.832031 31.261719 18.847656 C 31.453125 18.953125 31.667969 18.878906 31.867188 18.917969 C 31.972656 18.980469 32.066406 19.011719 32.089844 18.851562 C 32.214844 18.699219 32.195312 18.488281 32.34375 18.339844 C 32.480469 18.203125 32.484375 18.039062 32.386719 17.875 C 32.386719 17.855469 32.378906 17.839844 32.359375 17.832031 C 32.292969 17.726562 32.226562 17.621094 32.160156 17.515625 C 32.390625 17.539062 32.523438 17.398438 32.660156 17.265625 C 32.722656 17.242188 32.765625 17.199219 32.785156 17.140625 C 32.839844 17.136719 32.886719 17.121094 32.910156 17.070312 C 33.023438 17.03125 33.191406 17.136719 33.25 16.960938 C 33.257812 16.960938 33.265625 16.957031 33.269531 16.960938 C 33.375 16.960938 33.480469 16.964844 33.585938 16.964844 C 33.683594 17.023438 33.789062 17.054688 33.945312 17.046875 C 33.828125 16.933594 33.71875 16.898438 33.59375 16.886719 C 33.554688 16.863281 33.515625 16.839844 33.476562 16.8125 C 33.492188 16.648438 33.511719 16.480469 33.53125 16.3125 C 33.519531 16.292969 33.496094 16.28125 33.484375 16.261719 C 33.488281 16.257812 33.496094 16.261719 33.5 16.257812 C 33.527344 16.253906 33.558594 16.253906 33.585938 16.253906 C 33.652344 16.25 33.722656 16.25 33.789062 16.246094 C 33.878906 16.226562 33.972656 16.207031 34.066406 16.1875 C 34.355469 16.113281 34.664062 16.089844 34.890625 15.875 C 35.09375 15.835938 35.203125 15.667969 35.40625 15.597656 C 35.273438 15.527344 35.195312 15.632812 35.097656 15.625 C 35.070312 15.597656 35.042969 15.578125 35.019531 15.554688 C 35.066406 15.492188 35.117188 15.433594 35.167969 15.375 C 35.363281 15.335938 35.464844 15.1875 35.585938 15.058594 C 35.660156 15.011719 35.714844 14.957031 35.703125 14.863281 C 35.664062 14.621094 35.988281 14.539062 36.003906 14.285156 C 35.910156 14.34375 35.847656 14.378906 35.78125 14.417969 C 35.78125 14.398438 35.78125 14.378906 35.777344 14.355469 C 35.824219 14.292969 35.871094 14.230469 35.921875 14.167969 C 35.851562 14.050781 35.890625 13.949219 35.988281 13.863281 C 36.058594 13.816406 36.125 13.765625 36.191406 13.71875 C 36.246094 13.722656 36.296875 13.710938 36.332031 13.664062 C 36.632812 13.5 36.628906 13.46875 36.285156 13.269531 C 36.28125 13.238281 36.277344 13.210938 36.269531 13.179688 C 36.539062 13.171875 36.765625 13.058594 37 12.957031 C 37.128906 12.902344 37.070312 12.855469 36.964844 12.839844 C 37.011719 12.671875 37.183594 12.667969 37.3125 12.601562 C 37.386719 12.542969 37.460938 12.480469 37.554688 12.410156 C 37.421875 12.402344 37.324219 12.394531 37.226562 12.390625 C 37.175781 12.3125 37.195312 12.273438 37.292969 12.277344 Z M 36.886719 7.347656 Z M 36.90625 7.285156 C 36.910156 7.285156 36.914062 7.285156 36.917969 7.285156 C 36.914062 7.285156 36.910156 7.285156 36.90625 7.285156 Z M 36.496094 6.109375 C 36.503906 6.109375 36.507812 6.109375 36.511719 6.109375 C 36.507812 6.121094 36.515625 6.136719 36.515625 6.148438 C 36.515625 6.148438 36.511719 6.144531 36.511719 6.144531 L 36.507812 6.144531 C 36.503906 6.132812 36.5 6.121094 36.496094 6.109375 Z M 36.539062 1.246094 Z M 36.5625 1.183594 C 36.5625 1.183594 36.566406 1.183594 36.570312 1.183594 C 36.566406 1.183594 36.5625 1.183594 36.5625 1.183594 Z M 36.105469 1.175781 C 36.109375 1.175781 36.117188 1.175781 36.121094 1.175781 C 36.113281 1.175781 36.109375 1.175781 36.105469 1.175781 Z M 35.789062 4.398438 C 35.789062 4.402344 35.792969 4.402344 35.792969 4.40625 C 35.789062 4.40625 35.789062 4.40625 35.785156 4.40625 L 35.785156 4.402344 C 35.785156 4.398438 35.789062 4.402344 35.789062 4.398438 Z M 35.640625 1.429688 L 35.640625 1.433594 C 35.640625 1.429688 35.636719 1.429688 35.636719 1.429688 C 35.636719 1.429688 35.640625 1.429688 35.640625 1.429688 Z M 35.3125 3.199219 C 35.316406 3.203125 35.320312 3.203125 35.320312 3.207031 C 35.3125 3.207031 35.3125 3.199219 35.304688 3.203125 C 35.304688 3.199219 35.308594 3.203125 35.3125 3.199219 Z M 1.425781 6.800781 C 1.421875 6.800781 1.414062 6.800781 1.410156 6.800781 C 1.414062 6.789062 1.40625 6.777344 1.40625 6.765625 C 1.40625 6.765625 1.410156 6.765625 1.410156 6.765625 L 1.414062 6.765625 C 1.417969 6.777344 1.421875 6.789062 1.425781 6.800781 Z M 2.625 5.855469 C 2.628906 5.855469 2.628906 5.851562 2.632812 5.851562 C 2.628906 5.855469 2.628906 5.855469 2.625 5.855469 Z M 1.773438 12.902344 C 1.765625 12.902344 1.761719 12.902344 1.753906 12.902344 C 1.761719 12.890625 1.753906 12.878906 1.75 12.863281 C 1.753906 12.867188 1.753906 12.867188 1.757812 12.867188 C 1.761719 12.878906 1.765625 12.890625 1.773438 12.902344 Z M 2.164062 17.835938 C 2.160156 17.835938 2.152344 17.839844 2.148438 17.835938 C 2.152344 17.835938 2.160156 17.832031 2.164062 17.832031 C 2.164062 17.835938 2.164062 17.835938 2.164062 17.835938 Z M 2.480469 14.613281 C 2.476562 14.609375 2.476562 14.609375 2.476562 14.605469 C 2.476562 14.605469 2.480469 14.609375 2.480469 14.609375 L 2.484375 14.609375 C 2.484375 14.613281 2.480469 14.613281 2.480469 14.613281 Z M 2.628906 17.582031 L 2.628906 17.578125 C 2.628906 17.582031 2.632812 17.582031 2.632812 17.585938 C 2.632812 17.582031 2.628906 17.582031 2.628906 17.582031 Z M 2.957031 15.8125 C 2.953125 15.808594 2.949219 15.808594 2.945312 15.804688 C 2.945312 15.804688 2.949219 15.804688 2.949219 15.804688 C 2.957031 15.804688 2.957031 15.8125 2.964844 15.808594 C 2.960938 15.8125 2.957031 15.8125 2.957031 15.8125 Z M 35.664062 9.308594 C 35.660156 9.308594 35.65625 9.300781 35.652344 9.304688 C 35.652344 9.300781 35.65625 9.300781 35.660156 9.300781 C 35.660156 9.304688 35.664062 9.304688 35.667969 9.308594 C 35.667969 9.308594 35.667969 9.308594 35.664062 9.308594 Z M 36.132812 10.507812 L 36.128906 10.503906 C 36.132812 10.5 36.132812 10.5 36.136719 10.5 C 36.136719 10.503906 36.136719 10.503906 36.140625 10.507812 C 36.136719 10.507812 36.136719 10.507812 36.132812 10.507812 Z M 36.453125 7.277344 C 36.457031 7.277344 36.460938 7.277344 36.464844 7.277344 C 36.460938 7.277344 36.457031 7.277344 36.449219 7.277344 C 36.453125 7.277344 36.453125 7.277344 36.453125 7.277344 Z M 34.832031 4.71875 C 34.832031 4.71875 34.828125 4.71875 34.824219 4.722656 C 34.824219 4.722656 34.824219 4.71875 34.824219 4.71875 C 34.828125 4.71875 34.832031 4.71875 34.832031 4.71875 Z M 34.621094 5.605469 C 34.621094 5.605469 34.625 5.605469 34.625 5.605469 C 34.625 5.605469 34.621094 5.605469 34.621094 5.605469 C 34.613281 5.609375 34.605469 5.609375 34.597656 5.613281 C 34.59375 5.609375 34.589844 5.605469 34.589844 5.601562 C 34.601562 5.601562 34.609375 5.605469 34.621094 5.605469 Z M 34.496094 5.015625 C 34.5 5.023438 34.5 5.027344 34.507812 5.03125 C 34.5 5.03125 34.488281 5.039062 34.480469 5.035156 C 34.484375 5.027344 34.492188 5.023438 34.496094 5.015625 Z M 31.257812 0.664062 C 31.25 0.660156 31.246094 0.65625 31.238281 0.65625 C 31.238281 0.65625 31.242188 0.65625 31.242188 0.65625 C 31.246094 0.65625 31.253906 0.660156 31.257812 0.664062 Z M 31.179688 0.664062 C 31.171875 0.667969 31.167969 0.671875 31.160156 0.671875 L 31.160156 0.667969 C 31.167969 0.667969 31.171875 0.667969 31.179688 0.664062 Z M 30.445312 16.953125 C 30.445312 16.953125 30.445312 16.949219 30.445312 16.945312 C 30.445312 16.945312 30.445312 16.945312 30.449219 16.945312 C 30.445312 16.949219 30.445312 16.953125 30.445312 16.953125 Z M 30.445312 17.011719 C 30.445312 17.011719 30.445312 17.007812 30.445312 17.007812 C 30.445312 17.007812 30.445312 17.007812 30.445312 17.011719 Z M 29.824219 0.480469 C 29.835938 0.484375 29.84375 0.488281 29.855469 0.492188 C 29.84375 0.492188 29.835938 0.488281 29.824219 0.480469 Z M 29.785156 0.449219 C 29.789062 0.453125 29.792969 0.457031 29.796875 0.457031 C 29.792969 0.457031 29.789062 0.453125 29.785156 0.449219 Z M 29.75 0.550781 L 29.746094 0.550781 Z M 26.527344 0.421875 C 26.53125 0.421875 26.535156 0.417969 26.539062 0.414062 C 26.546875 0.421875 26.558594 0.417969 26.566406 0.421875 C 26.554688 0.421875 26.539062 0.421875 26.527344 0.421875 Z M 27.160156 0.171875 C 27.152344 0.171875 27.148438 0.171875 27.144531 0.171875 C 27.144531 0.164062 27.144531 0.15625 27.144531 0.148438 C 27.148438 0.15625 27.15625 0.164062 27.160156 0.171875 Z M 26.746094 0.113281 C 26.714844 0.109375 26.683594 0.109375 26.652344 0.109375 C 26.683594 0.109375 26.710938 0.109375 26.742188 0.109375 C 26.742188 0.109375 26.746094 0.109375 26.746094 0.113281 Z M 24.355469 0.171875 C 24.347656 0.171875 24.34375 0.171875 24.335938 0.171875 C 24.335938 0.160156 24.335938 0.152344 24.335938 0.140625 C 24.339844 0.152344 24.347656 0.160156 24.355469 0.171875 Z M 24.335938 0.222656 C 24.335938 0.226562 24.335938 0.230469 24.335938 0.234375 C 24.332031 0.234375 24.332031 0.234375 24.328125 0.234375 C 24.332031 0.230469 24.332031 0.226562 24.335938 0.222656 Z M 23.683594 5.773438 C 23.683594 5.773438 23.6875 5.773438 23.6875 5.773438 C 23.6875 5.777344 23.683594 5.777344 23.679688 5.777344 C 23.679688 5.777344 23.683594 5.773438 23.683594 5.773438 Z M 20.960938 0.351562 L 20.960938 0.355469 C 20.957031 0.355469 20.957031 0.355469 20.953125 0.355469 C 20.953125 0.355469 20.953125 0.351562 20.953125 0.351562 C 20.957031 0.351562 20.957031 0.351562 20.960938 0.351562 Z M 18.933594 0.40625 C 18.9375 0.414062 18.933594 0.417969 18.933594 0.421875 C 18.929688 0.425781 18.925781 0.421875 18.925781 0.421875 C 18.925781 0.417969 18.929688 0.414062 18.933594 0.40625 Z M 18.238281 0.421875 C 18.238281 0.421875 18.238281 0.417969 18.238281 0.417969 C 18.238281 0.417969 18.242188 0.421875 18.242188 0.421875 C 18.242188 0.421875 18.238281 0.421875 18.238281 0.421875 Z M 18.234375 0.355469 C 18.230469 0.355469 18.222656 0.355469 18.214844 0.355469 C 18.214844 0.351562 18.214844 0.351562 18.214844 0.347656 C 18.21875 0.351562 18.226562 0.351562 18.234375 0.355469 Z M 17.070312 0.363281 C 17.070312 0.363281 17.066406 0.367188 17.0625 0.371094 C 17.0625 0.367188 17.058594 0.363281 17.054688 0.363281 C 17.0625 0.363281 17.066406 0.363281 17.070312 0.363281 Z M 11.742188 18.589844 C 11.738281 18.589844 11.734375 18.59375 11.730469 18.597656 C 11.722656 18.589844 11.710938 18.59375 11.703125 18.589844 C 11.714844 18.589844 11.726562 18.589844 11.742188 18.589844 Z M 14.144531 0.476562 C 14.144531 0.480469 14.148438 0.484375 14.148438 0.488281 C 14.140625 0.484375 14.132812 0.488281 14.125 0.484375 C 14.132812 0.480469 14.140625 0.480469 14.144531 0.476562 Z M 13.808594 0.613281 C 13.808594 0.625 13.820312 0.625 13.820312 0.632812 C 13.808594 0.625 13.792969 0.625 13.785156 0.613281 C 13.792969 0.613281 13.800781 0.613281 13.808594 0.613281 Z M 13.691406 0.425781 C 13.683594 0.429688 13.679688 0.429688 13.671875 0.433594 C 13.667969 0.425781 13.660156 0.433594 13.652344 0.425781 C 13.664062 0.425781 13.679688 0.425781 13.691406 0.425781 Z M 13.492188 0.425781 C 13.5 0.425781 13.503906 0.421875 13.511719 0.421875 C 13.507812 0.4375 13.488281 0.433594 13.480469 0.445312 C 13.484375 0.433594 13.492188 0.433594 13.492188 0.425781 Z M 11.351562 1.117188 C 11.332031 1.078125 11.390625 1.121094 11.347656 1.128906 C 11.347656 1.128906 11.34375 1.125 11.34375 1.128906 C 11.34375 1.125 11.355469 1.125 11.351562 1.117188 Z M 11.027344 1.183594 C 11.019531 1.1875 11.015625 1.1875 11.007812 1.191406 C 10.996094 1.183594 10.984375 1.191406 10.976562 1.183594 C 10.992188 1.183594 11.007812 1.183594 11.027344 1.183594 Z M 9.882812 0.488281 C 9.882812 0.488281 9.886719 0.492188 9.886719 0.492188 C 9.882812 0.492188 9.882812 0.488281 9.878906 0.488281 C 9.882812 0.488281 9.882812 0.488281 9.882812 0.488281 Z M 9.742188 1.179688 C 9.742188 1.179688 9.738281 1.179688 9.738281 1.179688 C 9.738281 1.179688 9.738281 1.175781 9.738281 1.175781 C 9.738281 1.175781 9.742188 1.175781 9.742188 1.179688 Z M 9.675781 0.738281 Z M 9.46875 0.867188 C 9.480469 0.863281 9.496094 0.867188 9.507812 0.867188 C 9.496094 0.871094 9.480469 0.875 9.46875 0.886719 C 9.46875 0.882812 9.46875 0.875 9.46875 0.867188 Z M 9.21875 0.359375 C 9.21875 0.363281 9.210938 0.363281 9.210938 0.367188 C 9.207031 0.363281 9.199219 0.367188 9.195312 0.359375 C 9.203125 0.359375 9.210938 0.359375 9.21875 0.359375 Z M 8.539062 1.15625 C 8.535156 1.160156 8.535156 1.167969 8.527344 1.164062 C 8.519531 1.15625 8.511719 1.160156 8.507812 1.152344 C 8.515625 1.15625 8.527344 1.15625 8.539062 1.15625 Z M 7.824219 2.058594 C 7.824219 2.0625 7.824219 2.0625 7.824219 2.066406 C 7.824219 2.066406 7.820312 2.066406 7.820312 2.066406 C 7.824219 2.0625 7.824219 2.0625 7.824219 2.058594 Z M 7.824219 2.003906 Z M 8.1875 1.699219 C 8.167969 1.691406 8.152344 1.683594 8.136719 1.675781 C 8.152344 1.683594 8.167969 1.695312 8.1875 1.699219 Z M 7.960938 1.121094 C 7.957031 1.121094 7.957031 1.125 7.953125 1.125 C 7.953125 1.121094 7.953125 1.121094 7.953125 1.117188 C 7.953125 1.117188 7.957031 1.117188 7.960938 1.121094 Z M 7.824219 0.847656 C 7.824219 0.851562 7.824219 0.859375 7.824219 0.863281 C 7.820312 0.863281 7.816406 0.863281 7.8125 0.863281 C 7.820312 0.855469 7.820312 0.851562 7.824219 0.847656 Z M 7.765625 0.257812 C 7.765625 0.257812 7.761719 0.257812 7.761719 0.257812 C 7.757812 0.257812 7.757812 0.257812 7.753906 0.257812 C 7.757812 0.257812 7.765625 0.257812 7.765625 0.257812 Z M 7.691406 0.605469 C 7.691406 0.609375 7.691406 0.609375 7.691406 0.609375 C 7.691406 0.613281 7.6875 0.613281 7.6875 0.613281 C 7.6875 0.609375 7.691406 0.609375 7.691406 0.605469 Z M 6.28125 2.109375 C 6.28125 2.109375 6.277344 2.109375 6.277344 2.109375 C 6.277344 2.109375 6.277344 2.109375 6.277344 2.105469 C 6.277344 2.105469 6.277344 2.109375 6.28125 2.109375 Z M 3.445312 5.203125 C 3.449219 5.210938 3.441406 5.214844 3.445312 5.222656 C 3.441406 5.222656 3.433594 5.222656 3.429688 5.222656 C 3.433594 5.214844 3.441406 5.210938 3.445312 5.203125 Z M 3.441406 7.878906 C 3.4375 7.886719 3.429688 7.886719 3.425781 7.894531 C 3.421875 7.890625 3.421875 7.882812 3.414062 7.878906 C 3.421875 7.878906 3.433594 7.875 3.441406 7.878906 Z M 3.324219 7.300781 C 3.328125 7.304688 3.332031 7.304688 3.332031 7.308594 C 3.320312 7.308594 3.3125 7.308594 3.300781 7.308594 C 3.308594 7.300781 3.316406 7.304688 3.324219 7.300781 Z M 3.097656 8.191406 C 3.09375 8.191406 3.09375 8.195312 3.089844 8.191406 C 3.09375 8.191406 3.097656 8.191406 3.097656 8.191406 Z M 3.019531 5.980469 C 3.023438 5.984375 3.03125 5.984375 3.035156 5.984375 L 3.03125 5.988281 C 3.023438 5.984375 3.015625 5.984375 3.003906 5.984375 C 3.007812 5.984375 3.011719 5.984375 3.019531 5.980469 Z M 2.832031 5.347656 L 2.832031 5.351562 C 2.832031 5.351562 2.828125 5.351562 2.828125 5.355469 C 2.828125 5.351562 2.832031 5.351562 2.832031 5.347656 Z M 2.601562 9.703125 C 2.609375 9.703125 2.609375 9.710938 2.617188 9.710938 C 2.617188 9.710938 2.613281 9.710938 2.609375 9.710938 C 2.605469 9.710938 2.601562 9.707031 2.601562 9.703125 Z M 2.136719 8.507812 C 2.136719 8.511719 2.132812 8.511719 2.132812 8.511719 C 2.132812 8.511719 2.128906 8.507812 2.128906 8.503906 C 2.132812 8.503906 2.132812 8.507812 2.136719 8.507812 Z M 1.816406 11.738281 C 1.8125 11.734375 1.808594 11.738281 1.804688 11.734375 C 1.808594 11.734375 1.8125 11.734375 1.816406 11.734375 C 1.816406 11.734375 1.816406 11.734375 1.816406 11.738281 Z M 3.445312 14.292969 C 3.441406 14.292969 3.4375 14.296875 3.433594 14.292969 C 3.4375 14.292969 3.441406 14.292969 3.445312 14.292969 Z M 3.644531 13.40625 C 3.652344 13.402344 3.664062 13.40625 3.671875 13.402344 C 3.675781 13.402344 3.675781 13.40625 3.679688 13.410156 C 3.667969 13.410156 3.65625 13.410156 3.644531 13.40625 Z M 3.773438 13.996094 C 3.769531 13.988281 3.765625 13.984375 3.761719 13.980469 C 3.769531 13.980469 3.78125 13.972656 3.785156 13.976562 C 3.785156 13.988281 3.777344 13.988281 3.773438 13.996094 Z M 7.007812 18.347656 C 7.015625 18.351562 7.023438 18.355469 7.03125 18.355469 C 7.027344 18.359375 7.027344 18.359375 7.027344 18.359375 C 7.023438 18.355469 7.011719 18.355469 7.007812 18.347656 Z M 7.089844 18.347656 C 7.09375 18.34375 7.101562 18.34375 7.105469 18.339844 L 7.109375 18.34375 C 7.101562 18.34375 7.09375 18.347656 7.089844 18.347656 Z M 8.445312 18.53125 C 8.433594 18.527344 8.425781 18.523438 8.414062 18.519531 C 8.425781 18.519531 8.433594 18.527344 8.445312 18.53125 Z M 8.484375 18.5625 C 8.480469 18.558594 8.476562 18.558594 8.472656 18.554688 C 8.476562 18.554688 8.480469 18.558594 8.484375 18.5625 Z M 8.519531 18.464844 L 8.519531 18.460938 C 8.519531 18.460938 8.519531 18.464844 8.519531 18.464844 Z M 11.109375 18.84375 C 11.113281 18.84375 11.117188 18.84375 11.125 18.84375 C 11.125 18.851562 11.125 18.859375 11.125 18.867188 C 11.121094 18.859375 11.113281 18.851562 11.109375 18.84375 Z M 11.523438 18.898438 C 11.558594 18.902344 11.59375 18.902344 11.632812 18.902344 C 11.597656 18.902344 11.5625 18.902344 11.527344 18.902344 C 11.527344 18.902344 11.523438 18.902344 11.523438 18.898438 Z M 13.914062 18.84375 C 13.921875 18.84375 13.925781 18.84375 13.933594 18.84375 C 13.933594 18.851562 13.933594 18.859375 13.929688 18.871094 C 13.925781 18.859375 13.917969 18.851562 13.914062 18.84375 Z M 13.933594 18.789062 C 13.933594 18.785156 13.933594 18.78125 13.933594 18.777344 C 13.933594 18.777344 13.9375 18.777344 13.941406 18.777344 C 13.9375 18.78125 13.933594 18.785156 13.933594 18.789062 Z M 14.585938 13.238281 C 14.582031 13.238281 14.582031 13.238281 14.582031 13.238281 C 14.582031 13.238281 14.585938 13.238281 14.585938 13.234375 C 14.585938 13.234375 14.585938 13.238281 14.585938 13.238281 Z M 17.308594 18.660156 C 17.3125 18.65625 17.3125 18.65625 17.316406 18.65625 C 17.316406 18.660156 17.316406 18.660156 17.316406 18.660156 C 17.3125 18.660156 17.308594 18.660156 17.308594 18.660156 Z M 19.34375 18.589844 C 19.339844 18.59375 19.335938 18.601562 19.332031 18.605469 C 19.332031 18.597656 19.335938 18.597656 19.332031 18.589844 C 19.339844 18.589844 19.339844 18.589844 19.34375 18.589844 L 19.347656 18.589844 Z M 20.03125 18.589844 C 20.03125 18.589844 20.03125 18.59375 20.03125 18.59375 C 20.03125 18.59375 20.027344 18.589844 20.027344 18.589844 C 20.027344 18.589844 20.03125 18.589844 20.03125 18.589844 Z M 20.035156 18.65625 C 20.039062 18.65625 20.046875 18.65625 20.054688 18.65625 C 20.054688 18.660156 20.054688 18.660156 20.054688 18.664062 C 20.046875 18.664062 20.039062 18.660156 20.035156 18.65625 Z M 21.195312 18.648438 C 21.199219 18.648438 21.203125 18.644531 21.203125 18.640625 C 21.207031 18.644531 21.210938 18.648438 21.210938 18.648438 C 21.207031 18.648438 21.203125 18.652344 21.195312 18.648438 Z M 24.125 18.535156 C 24.125 18.53125 24.121094 18.53125 24.117188 18.527344 C 24.125 18.527344 24.132812 18.523438 24.140625 18.527344 C 24.136719 18.53125 24.128906 18.53125 24.125 18.535156 Z M 24.460938 18.398438 C 24.457031 18.390625 24.449219 18.390625 24.449219 18.382812 C 24.457031 18.390625 24.472656 18.390625 24.484375 18.398438 C 24.476562 18.398438 24.46875 18.398438 24.460938 18.398438 Z M 24.578125 18.585938 C 24.582031 18.582031 24.589844 18.582031 24.597656 18.578125 C 24.601562 18.585938 24.609375 18.578125 24.617188 18.585938 C 24.601562 18.585938 24.589844 18.585938 24.578125 18.585938 Z M 24.777344 18.589844 C 24.769531 18.585938 24.765625 18.589844 24.757812 18.589844 C 24.761719 18.574219 24.78125 18.578125 24.785156 18.566406 C 24.785156 18.578125 24.777344 18.578125 24.777344 18.589844 Z M 26.917969 17.894531 C 26.9375 17.933594 26.878906 17.890625 26.921875 17.882812 C 26.921875 17.882812 26.925781 17.886719 26.925781 17.882812 C 26.925781 17.886719 26.914062 17.886719 26.917969 17.894531 Z M 27.242188 17.828125 C 27.246094 17.824219 27.253906 17.828125 27.261719 17.820312 C 27.269531 17.828125 27.285156 17.820312 27.292969 17.828125 C 27.277344 17.828125 27.257812 17.828125 27.242188 17.828125 Z M 28.386719 18.523438 C 28.386719 18.523438 28.382812 18.523438 28.382812 18.519531 C 28.386719 18.519531 28.386719 18.523438 28.390625 18.523438 C 28.390625 18.523438 28.386719 18.523438 28.386719 18.523438 Z M 28.527344 17.832031 L 28.523438 17.832031 L 28.527344 17.832031 C 28.527344 17.832031 28.527344 17.832031 28.53125 17.832031 C 28.53125 17.832031 28.53125 17.835938 28.53125 17.835938 C 28.53125 17.835938 28.527344 17.835938 28.527344 17.832031 Z M 28.59375 18.273438 Z M 28.800781 18.144531 C 28.785156 18.148438 28.773438 18.144531 28.761719 18.144531 C 28.773438 18.140625 28.789062 18.136719 28.800781 18.125 C 28.800781 18.132812 28.800781 18.140625 28.800781 18.144531 Z M 29.046875 18.652344 C 29.050781 18.648438 29.054688 18.648438 29.058594 18.644531 C 29.0625 18.648438 29.070312 18.644531 29.074219 18.652344 C 29.066406 18.652344 29.058594 18.652344 29.046875 18.652344 Z M 29.730469 17.855469 C 29.734375 17.855469 29.734375 17.84375 29.742188 17.847656 C 29.75 17.855469 29.757812 17.851562 29.765625 17.859375 C 29.753906 17.859375 29.742188 17.859375 29.730469 17.855469 Z M 30.082031 17.3125 C 30.101562 17.320312 30.117188 17.328125 30.132812 17.335938 C 30.117188 17.332031 30.101562 17.320312 30.082031 17.3125 Z M 30.308594 17.894531 C 30.3125 17.890625 30.3125 17.890625 30.3125 17.886719 C 30.316406 17.890625 30.316406 17.894531 30.316406 17.894531 C 30.3125 17.894531 30.3125 17.894531 30.308594 17.894531 Z M 30.445312 18.167969 C 30.445312 18.160156 30.445312 18.152344 30.445312 18.148438 C 30.449219 18.148438 30.449219 18.148438 30.457031 18.148438 C 30.449219 18.15625 30.449219 18.160156 30.445312 18.167969 Z M 30.5 18.753906 C 30.503906 18.753906 30.503906 18.753906 30.507812 18.753906 C 30.507812 18.753906 30.511719 18.753906 30.511719 18.753906 C 30.507812 18.753906 30.503906 18.757812 30.5 18.753906 Z M 30.578125 18.40625 C 30.578125 18.402344 30.574219 18.402344 30.574219 18.402344 C 30.578125 18.398438 30.582031 18.398438 30.582031 18.402344 C 30.582031 18.402344 30.578125 18.40625 30.578125 18.40625 Z M 31.988281 16.902344 C 31.988281 16.902344 31.992188 16.902344 31.992188 16.902344 C 31.992188 16.902344 31.992188 16.902344 31.992188 16.90625 C 31.992188 16.90625 31.988281 16.90625 31.988281 16.902344 Z M 34.820312 13.808594 C 34.816406 13.800781 34.828125 13.800781 34.820312 13.789062 C 34.828125 13.789062 34.832031 13.789062 34.839844 13.789062 C 34.832031 13.796875 34.828125 13.804688 34.820312 13.808594 Z M 34.828125 11.136719 C 34.832031 11.125 34.839844 11.125 34.839844 11.117188 C 34.84375 11.125 34.847656 11.128906 34.851562 11.132812 C 34.84375 11.132812 34.835938 11.140625 34.828125 11.136719 Z M 34.96875 11.707031 C 34.960938 11.710938 34.949219 11.707031 34.941406 11.714844 C 34.941406 11.710938 34.9375 11.707031 34.9375 11.703125 C 34.945312 11.703125 34.957031 11.707031 34.96875 11.707031 Z M 35.167969 10.824219 C 35.167969 10.824219 35.167969 10.820312 35.167969 10.820312 C 35.171875 10.820312 35.175781 10.820312 35.179688 10.820312 C 35.175781 10.820312 35.171875 10.820312 35.167969 10.824219 Z M 35.25 13.03125 C 35.246094 13.03125 35.238281 13.03125 35.234375 13.027344 L 35.234375 13.023438 C 35.246094 13.027344 35.253906 13.027344 35.261719 13.027344 C 35.257812 13.027344 35.253906 13.027344 35.25 13.03125 Z M 35.4375 13.664062 C 35.4375 13.664062 35.4375 13.660156 35.4375 13.660156 C 35.4375 13.660156 35.4375 13.660156 35.441406 13.660156 C 35.441406 13.660156 35.4375 13.660156 35.4375 13.664062 Z M 35.636719 13.160156 C 35.640625 13.160156 35.640625 13.15625 35.640625 13.15625 L 35.644531 13.15625 C 35.640625 13.15625 35.640625 13.160156 35.636719 13.160156 Z M 36.855469 12.246094 C 36.851562 12.234375 36.847656 12.222656 36.84375 12.210938 C 36.847656 12.210938 36.855469 12.210938 36.859375 12.210938 C 36.851562 12.222656 36.859375 12.234375 36.863281 12.25 C 36.863281 12.246094 36.859375 12.246094 36.855469 12.246094 Z M 36.855469 12.246094 "/></g><path style=" stroke:none;fill-rule:nonzero;fill:#fbb03b;fill-opacity:1;" d="M 1.695312 13.824219 C 1.730469 13.8125 1.761719 13.773438 1.777344 13.742188 C 1.792969 13.707031 1.761719 13.6875 1.667969 13.679688 C 1.667969 13.683594 1.640625 13.71875 1.628906 13.753906 C 1.617188 13.800781 1.644531 13.839844 1.695312 13.824219 Z M 1.695312 13.824219 "/><path style=" stroke:none;fill-rule:nonzero;fill:#fbb03b;fill-opacity:1;" d="M 1.394531 17.894531 C 1.398438 17.890625 1.398438 17.894531 1.402344 17.894531 C 1.402344 17.890625 1.402344 17.890625 1.402344 17.890625 C 1.402344 17.890625 1.398438 17.890625 1.398438 17.890625 C 1.398438 17.890625 1.394531 17.890625 1.394531 17.894531 Z M 1.394531 17.894531 "/><path style=" stroke:none;fill-rule:nonzero;fill:#fbb03b;fill-opacity:1;" d="M 1.222656 17.941406 C 1.214844 17.949219 1.25 17.996094 1.273438 18 C 1.363281 18.019531 1.382812 17.957031 1.394531 17.894531 C 1.335938 17.902344 1.261719 17.875 1.222656 17.941406 Z M 1.222656 17.941406 "/><path style=" stroke:none;fill-rule:nonzero;fill:#fbb03b;fill-opacity:1;" d="M 35.945312 14.664062 C 36.074219 14.558594 36.210938 14.445312 36.347656 14.332031 C 36.171875 14.417969 36.007812 14.507812 35.945312 14.664062 Z M 35.945312 14.664062 "/><path style=" stroke:none;fill-rule:nonzero;fill:#fbb03b;fill-opacity:1;" d="M 36.917969 11.289062 C 36.886719 11.300781 36.851562 11.339844 36.835938 11.371094 C 36.820312 11.40625 36.851562 11.425781 36.945312 11.433594 C 36.949219 11.429688 36.972656 11.394531 36.984375 11.359375 C 37 11.3125 36.96875 11.273438 36.917969 11.289062 Z M 36.917969 11.289062 "/><path style=" stroke:none;fill-rule:nonzero;fill:#fbb03b;fill-opacity:1;" d="M 15.039062 18.964844 C 15.183594 18.957031 15.277344 18.996094 15.410156 18.910156 C 15.273438 18.914062 15.179688 18.878906 15.039062 18.964844 Z M 15.039062 18.964844 "/><g clip-rule="nonzero" clip-path="url(#ee0966bbb4)"><path style=" stroke:none;fill-rule:nonzero;fill:#fbb03b;fill-opacity:1;" d="M 37.210938 7.222656 C 37.214844 7.222656 37.214844 7.222656 37.21875 7.226562 C 37.21875 7.226562 37.21875 7.222656 37.21875 7.21875 C 37.21875 7.222656 37.214844 7.21875 37.214844 7.222656 C 37.214844 7.222656 37.210938 7.222656 37.210938 7.222656 Z M 37.210938 7.222656 "/><path style=" stroke:none;fill-rule:nonzero;fill:#fbb03b;fill-opacity:1;" d="M 37.21875 7.21875 C 37.28125 7.210938 37.355469 7.238281 37.394531 7.171875 C 37.398438 7.164062 37.363281 7.117188 37.339844 7.113281 C 37.25 7.097656 37.234375 7.15625 37.21875 7.21875 Z M 37.21875 7.21875 "/></g><path style=" stroke:none;fill-rule:nonzero;fill:#fbb03b;fill-opacity:1;" d="M 2.324219 4.347656 C 2.195312 4.457031 2.058594 4.570312 1.921875 4.683594 C 2.097656 4.59375 2.261719 4.503906 2.324219 4.347656 Z M 2.324219 4.347656 "/><path style=" stroke:none;fill-rule:nonzero;fill:#fbb03b;fill-opacity:1;" d="M 1.351562 7.722656 C 1.382812 7.710938 1.414062 7.671875 1.429688 7.640625 C 1.445312 7.609375 1.417969 7.585938 1.320312 7.578125 C 1.320312 7.582031 1.296875 7.617188 1.285156 7.652344 C 1.269531 7.699219 1.300781 7.738281 1.351562 7.722656 Z M 1.351562 7.722656 "/><path style=" stroke:none;fill-rule:nonzero;fill:#fbb03b;fill-opacity:1;" d="M 23.230469 0.046875 C 23.085938 0.0546875 22.992188 0.015625 22.855469 0.101562 C 22.996094 0.0976562 23.085938 0.132812 23.230469 0.046875 Z M 23.230469 0.046875 "/><path style=" stroke:none;fill-rule:nonzero;fill:#fbb03b;fill-opacity:1;" d="M 1.058594 11.789062 C 1.054688 11.789062 1.054688 11.789062 1.050781 11.789062 C 1.050781 11.789062 1.050781 11.789062 1.050781 11.792969 C 1.050781 11.792969 1.054688 11.792969 1.054688 11.792969 C 1.054688 11.789062 1.058594 11.789062 1.058594 11.789062 Z M 1.058594 11.789062 "/><g clip-rule="nonzero" clip-path="url(#08d8eab031)"><path style=" stroke:none;fill-rule:nonzero;fill:#fbb03b;fill-opacity:1;" d="M 1.050781 11.792969 C 0.988281 11.804688 0.914062 11.773438 0.875 11.839844 C 0.871094 11.851562 0.90625 11.894531 0.925781 11.898438 C 1.019531 11.917969 1.035156 11.855469 1.050781 11.792969 Z M 1.050781 11.792969 "/></g><path style=" stroke:none;fill-rule:nonzero;fill:#fbb03b;fill-opacity:1;" d="M 36.574219 5.1875 C 36.539062 5.199219 36.507812 5.238281 36.492188 5.273438 C 36.476562 5.304688 36.503906 5.324219 36.601562 5.332031 C 36.601562 5.328125 36.628906 5.296875 36.636719 5.257812 C 36.652344 5.210938 36.621094 5.175781 36.574219 5.1875 Z M 36.574219 5.1875 "/><path style=" stroke:none;fill-rule:nonzero;fill:#fbb03b;fill-opacity:1;" d="M 36.871094 1.121094 C 36.871094 1.121094 36.871094 1.121094 36.867188 1.121094 C 36.867188 1.125 36.871094 1.125 36.871094 1.125 C 36.871094 1.125 36.871094 1.121094 36.871094 1.121094 Z M 36.871094 1.121094 "/><g clip-rule="nonzero" clip-path="url(#bd7ae6ad14)"><path style=" stroke:none;fill-rule:nonzero;fill:#fbb03b;fill-opacity:1;" d="M 37.046875 1.070312 C 37.050781 1.0625 37.015625 1.015625 36.996094 1.011719 C 36.902344 0.996094 36.886719 1.058594 36.871094 1.121094 C 36.933594 1.109375 37.007812 1.140625 37.046875 1.070312 Z M 37.046875 1.070312 "/></g></g></svg>